# xmcd
#
# Track frame offsets:
#	150
#	18073
#	40130
#	61574
#	76763
#	94884
#	111107
#	128744
#	147729
#	163719
#	179713
#	197166
#	223859
#
# Disc length: 3210 seconds
#
# Revision: 0
# Processed by: cddbd v1.5.1PL0 Copyright (c) Steve Scherf et al.
# Submitted via: dBpowerAMP V4.0
#
DISCID=b30c880d
DTITLE=Kenny Chesney - No Shoes .No Shirt .No problem
DYEAR=1900
DGENRE=
TTITLE0=Young
TTITLE1=Remember
TTITLE2=A Lot Of Things Different
TTITLE3=The Good Stuff
TTITLE4=Big star
TTITLE5=On The Coast Of Somwhere Beautiful
TTITLE6=Never Gonna Feel That Way Again
TTITLE7=Dreams
TTITLE8=No Shoes No Shirt No problems
TTITLE9=Live Those Songs
TTITLE10=One Step Up
TTITLE11=Cant Go There
TTITLE12=Extra
EXTD=Kenny Chesney - No Shoes .No Shirt .No problem
EXTT0=
EXTT1=
EXTT2=
EXTT3=
EXTT4=
EXTT5=
EXTT6=
EXTT7=
EXTT8=
EXTT9=
EXTT10=
EXTT11=
EXTT12=
PLAYORDER=
